<?xml version="1.0" encoding="utf-8"?>
<!-- Generator: Adobe Illustrator 15.0.0, SVG Export Plug-In  -->
<!DOCTYPE svg PUBLIC "-//W3C//DTD SVG 1.1//EN" "http://www.w3.org/Graphics/SVG/1.1/DTD/svg11.dtd" [
	<!ENTITY ns_flows "http://ns.adobe.com/Flows/1.0/">
]>
<svg version="1.1"
	 xmlns="http://www.w3.org/2000/svg" xmlns:xlink="http://www.w3.org/1999/xlink" xmlns:a="http://ns.adobe.com/AdobeSVGViewerExtensions/3.0/"
	 x="0px" y="0px" width="619px" height="280px" viewBox="-9.7 -9.7 619 280"
	 overflow="visible" enable-background="new -9.7 -9.7 619 280" xml:space="preserve">
<defs>
</defs>
<path display="none" d="M58.4,247.4l3.5-0.3c0.2,1.9,0.6,3.4,1.3,4.4c0.7,1.1,1.6,1.9,2.8,2.5c1.2,0.6,2.6,1,4.2,1
	c2.2,0,3.9-0.5,5.2-1.6c1.2-1.1,1.8-2.5,1.8-4.2c0-1-0.2-1.9-0.7-2.7c-0.4-0.8-1.1-1.4-2-1.9c-0.9-0.5-2.8-1.2-5.8-2
	c-2.7-0.8-4.5-1.6-5.7-2.4c-1.1-0.8-2-1.8-2.6-3c-0.6-1.2-0.9-2.6-0.9-4.2c0-2.8,0.9-5.1,2.7-6.8c1.8-1.8,4.2-2.7,7.3-2.7
	c2.1,0,3.9,0.4,5.5,1.2c1.6,0.8,2.8,2,3.6,3.6c0.9,1.5,1.3,3.4,1.4,5.5l-3.5,0.3c-0.2-2.2-0.9-3.9-2-5c-1.1-1.1-2.8-1.6-4.8-1.6
	c-2.1,0-3.7,0.5-4.8,1.4c-1.1,1-1.7,2.2-1.7,3.7c0,1.4,0.4,2.5,1.2,3.2c0.8,0.8,2.6,1.5,5.5,2.3c2.8,0.8,4.7,1.4,5.9,2
	c1.7,0.9,3,2,3.9,3.4s1.3,3.1,1.3,5.1c0,2-0.5,3.8-1.4,5.4s-2.2,2.8-3.8,3.7c-1.6,0.8-3.5,1.3-5.7,1.3c-3.5,0-6.2-1-8.3-3.1
	C59.6,253.8,58.5,251,58.4,247.4z"/>
<path display="none" d="M128,244v-19.8h3.7V244c0,3.3-0.3,6.1-1,8.2c-0.6,2.1-1.8,3.8-3.5,5c-1.7,1.2-3.9,1.9-6.5,1.9
	c-3.7,0-6.5-1.1-8.3-3.3c-1.9-2.2-2.8-6.1-2.8-11.8v-19.8h3.8V244c0,3.1,0.2,5.4,0.7,6.8c0.5,1.4,1.3,2.5,2.4,3.2
	c1.1,0.7,2.4,1.1,4,1.1c2.6,0,4.6-0.8,5.8-2.3C127.4,251.2,128,248.3,128,244z"/>
<path display="none" d="M165.2,227.9v11.4h8c1.8,0,3.1-0.2,4-0.6c0.9-0.4,1.6-1.1,2.1-2c0.5-0.9,0.8-2,0.8-3.2
	c0-1.7-0.5-3.1-1.5-4.1c-1-1-2.5-1.5-4.5-1.5H165.2L165.2,227.9z M165.2,258.5h-3.8v-34.4h12.5c2.6,0,4.5,0.3,5.8,1
	c1.2,0.7,2.3,1.7,3.1,3.2c0.8,1.5,1.2,3.2,1.2,5.2c0,2.6-0.7,4.7-2,6.3c-1.4,1.6-3.3,2.6-5.9,3.1c1.1,0.6,1.9,1.2,2.4,1.9
	c1.1,1.3,2.1,2.8,2.9,4.4l4.9,9.3h-4.7l-3.8-7.1c-1.5-2.8-2.5-4.7-3.3-5.6c-0.7-1-1.4-1.6-2.1-2c-0.7-0.3-1.7-0.5-2.9-0.5h-4.3
	V258.5z"/>
<polygon display="none" points="217.3,258.5 213.5,258.5 213.5,224.1 232.5,224.1 232.5,228.2 217.3,228.2 217.3,238.9 230.5,238.9 
	230.5,242.9 217.3,242.9 "/>
<path display="none" d="M264.7,242.6v11.9h7c1.5,0,2.7-0.1,3.4-0.4c1.1-0.4,1.9-1.1,2.4-2c0.6-0.9,0.8-2.1,0.8-3.5
	c0-1.3-0.3-2.4-0.8-3.3c-0.5-0.9-1.2-1.6-2.1-2c-0.9-0.4-2.3-0.6-4.2-0.6L264.7,242.6L264.7,242.6z M264.7,228.2v10.4h6.1
	c1.6,0,2.7-0.1,3.4-0.3c1-0.3,1.7-0.9,2.2-1.7c0.5-0.8,0.8-1.8,0.8-3.2c0-1.2-0.2-2.3-0.7-3.1c-0.5-0.8-1.1-1.4-1.9-1.7
	c-0.8-0.3-2.2-0.5-4.2-0.5H264.7z M271.6,258.5h-10.7v-34.4h10.6c2.2,0,3.9,0.3,5.1,1c1.2,0.7,2.3,1.7,3.1,3.1
	c0.8,1.4,1.2,2.9,1.2,4.7c0,1.6-0.4,3-1,4.3c-0.7,1.3-1.7,2.3-2.9,3c1.6,0.6,2.9,1.6,3.9,3c0.9,1.4,1.4,3.2,1.4,5.3
	c0,2.1-0.4,3.9-1.3,5.5c-0.9,1.6-2,2.7-3.4,3.4C276.1,258.1,274.1,258.5,271.6,258.5z"/>
<path display="none" d="M313.5,241.8c0,4.2,0.9,7.5,2.8,9.8c1.9,2.3,4.1,3.5,6.8,3.5c2.7,0,5-1.2,6.9-3.5c1.8-2.4,2.8-5.8,2.8-10.4
	c0-3-0.5-5.6-1.4-7.9c-0.7-1.8-1.8-3.2-3.3-4.3c-1.5-1.1-3.1-1.6-4.8-1.6c-2.8,0-5.1,1.2-7,3.5C314.4,233.3,313.5,236.9,313.5,241.8
	z M309.7,241.8c0-5.8,1.3-10.3,3.9-13.5c2.6-3.1,5.8-4.7,9.6-4.7c2.5,0,4.8,0.7,6.8,2.1c2.1,1.4,3.7,3.4,4.9,6.1
	c1.2,2.7,1.8,5.9,1.8,9.6c0,5.1-1.2,9.2-3.5,12.4c-2.6,3.5-5.9,5.3-10,5.3c-4.2,0-7.5-1.8-10-5.4
	C310.8,250.4,309.7,246.4,309.7,241.8z"/>
<path display="none" d="M373.1,234.3l-3.1,10.1h9.6l-2.9-9.5c-0.9-2.9-1.6-5.3-2-7.1C374.2,229.9,373.7,232.1,373.1,234.3z
	 M365.8,258.5h-3.9l10.9-34.4h4l11.5,34.4h-4.3l-3.2-10.4h-11.9L365.8,258.5z"/>
<path display="none" d="M418.4,227.9v11.4h8c1.8,0,3.1-0.2,4-0.6c0.9-0.4,1.6-1.1,2.2-2c0.5-0.9,0.8-2,0.8-3.2
	c0-1.7-0.5-3.1-1.5-4.1c-1-1-2.5-1.5-4.5-1.5H418.4L418.4,227.9z M418.4,258.5h-3.8v-34.4h12.5c2.6,0,4.5,0.3,5.8,1
	c1.2,0.7,2.3,1.7,3.1,3.2c0.8,1.5,1.2,3.2,1.2,5.2c0,2.6-0.7,4.7-2,6.3c-1.3,1.6-3.3,2.6-5.9,3.1c1,0.6,1.8,1.2,2.4,1.9
	c1.1,1.3,2.1,2.8,2.9,4.4l4.9,9.3h-4.7l-3.8-7.1c-1.5-2.8-2.6-4.7-3.3-5.6c-0.7-1-1.5-1.6-2.1-2c-0.7-0.3-1.7-0.5-2.9-0.5h-4.3
	V258.5L418.4,258.5z"/>
<path display="none" d="M470.4,228.2v26.3h6c2.4,0,4.2-0.4,5.5-1.2c1.2-0.8,2.2-2.1,2.9-3.8c0.9-2.3,1.3-5.1,1.3-8.4
	c0-3.5-0.5-6.2-1.4-8.2c-0.9-2-2.2-3.3-3.6-4c-1-0.5-2.6-0.7-4.7-0.7H470.4z M476.8,258.5h-10.2v-34.4h9.7c2.4,0,4.2,0.2,5.5,0.6
	c1.6,0.6,3.1,1.6,4.3,3c1.2,1.5,2.1,3.3,2.8,5.5c0.7,2.2,1,4.8,1,7.9c0,3.9-0.6,7.2-1.7,9.9c-1.1,2.7-2.6,4.6-4.4,5.8
	C482,257.9,479.7,258.5,476.8,258.5z"/>
<path display="none" d="M517.3,247.4l3.5-0.3c0.2,1.9,0.6,3.4,1.3,4.4c0.7,1.1,1.6,1.9,2.8,2.5c1.2,0.6,2.6,1,4.2,1
	c2.2,0,3.9-0.5,5.2-1.6c1.2-1.1,1.8-2.5,1.8-4.2c0-1-0.2-1.9-0.7-2.7c-0.4-0.8-1.1-1.4-2-1.9c-0.9-0.5-2.8-1.2-5.8-2
	c-2.7-0.8-4.5-1.6-5.7-2.4c-1.1-0.8-2-1.8-2.6-3c-0.6-1.2-0.9-2.6-0.9-4.2c0-2.8,0.9-5.1,2.7-6.8c1.8-1.8,4.2-2.7,7.3-2.7
	c2.1,0,3.9,0.4,5.5,1.2s2.8,2,3.7,3.6c0.9,1.5,1.3,3.4,1.4,5.5l-3.5,0.3c-0.2-2.2-0.9-3.9-2-5c-1.2-1.1-2.8-1.6-4.8-1.6
	c-2.1,0-3.7,0.5-4.8,1.4c-1.1,1-1.7,2.2-1.7,3.7c0,1.4,0.4,2.5,1.2,3.2c0.8,0.8,2.6,1.5,5.5,2.3c2.8,0.8,4.7,1.4,5.9,2
	c1.7,0.9,3,2,3.9,3.4s1.3,3.1,1.3,5.1c0,2-0.5,3.8-1.4,5.4s-2.2,2.8-3.8,3.7c-1.6,0.8-3.5,1.3-5.7,1.3c-3.5,0-6.2-1-8.3-3.1
	C518.4,253.8,517.4,251,517.3,247.4z"/>
<text transform="matrix(1 0 0 1 20.9004 260.5957)" display="none" enable-background="new    " font-family="'Helvetica'" font-size="40" letter-spacing="32">SURFBOARDS</text>
<path d="M26.5,250.3c0.1,1.6,0.5,2.9,1.1,4c1.2,1.9,3.4,2.9,6.6,2.9c1.4,0,2.7-0.2,3.8-0.6c2.2-0.8,3.3-2.3,3.3-4.3
	c0-1.6-0.5-2.7-1.4-3.3c-1-0.7-2.5-1.2-4.5-1.7l-3.8-0.9c-2.5-0.6-4.2-1.2-5.2-1.9c-1.8-1.2-2.6-3-2.6-5.4c0-2.6,0.9-4.7,2.6-6.3
	c1.7-1.7,4.2-2.5,7.4-2.5c2.9,0,5.4,0.7,7.5,2.2c2,1.5,3.1,3.8,3.1,7h-3.7c-0.2-1.5-0.6-2.7-1.2-3.5c-1.1-1.5-3.1-2.2-5.8-2.2
	c-2.2,0-3.8,0.5-4.7,1.4c-1,1-1.4,2.1-1.4,3.4c0,1.4,0.6,2.4,1.7,3.1c0.7,0.4,2.4,0.9,5.1,1.6l3.9,0.9c1.9,0.4,3.3,1,4.4,1.8
	c1.8,1.3,2.6,3.3,2.6,5.8c0,3.2-1.1,5.4-3.4,6.8s-4.9,2.1-7.9,2.1c-3.5,0-6.2-0.9-8.2-2.7c-2-1.8-2.9-4.3-2.9-7.4L26.5,250.3
	L26.5,250.3z"/>
<path d="M86.8,230.9v17.7c0,2.1,0.4,3.8,1.2,5.2c1.2,2.1,3.1,3.1,5.9,3.1c3.3,0,5.6-1.1,6.8-3.4c0.6-1.2,1-2.9,1-4.9v-17.7h3.9V247
	c0,3.5-0.5,6.2-1.4,8.1c-1.8,3.5-5.1,5.2-9.9,5.2c-4.9,0-8.2-1.7-9.9-5.2c-1-1.9-1.4-4.6-1.4-8.1v-16.1H86.8L86.8,230.9z"/>
<path d="M144,230.9h13c2.1,0,3.9,0.3,5.3,1c2.6,1.2,4,3.5,4,6.8c0,1.7-0.4,3.1-1.1,4.2c-0.7,1.1-1.7,2-3,2.6c1.1,0.5,2,1.1,2.5,1.8
	c0.6,0.7,0.9,1.9,0.9,3.6l0.1,3.8c0,1.1,0.1,1.9,0.3,2.4c0.2,0.9,0.7,1.5,1.2,1.8v0.6h-4.8c-0.1-0.2-0.2-0.6-0.3-1
	c-0.1-0.4-0.1-1.1-0.2-2.3l-0.2-4.8c-0.1-1.9-0.8-3.1-2-3.8c-0.7-0.4-1.9-0.5-3.4-0.5h-8.6v12.3H144V230.9L144,230.9z M156.6,244
	c1.8,0,3.2-0.4,4.2-1.1c1-0.7,1.5-2,1.5-3.9c0-2-0.7-3.4-2.2-4.2c-0.8-0.4-1.8-0.6-3.1-0.6h-9.2v9.8H156.6z"/>
<path d="M204.8,230.9h19.9v3.5h-16v8.7h14.1v3.4h-14.1v13h-3.9L204.8,230.9L204.8,230.9z"/>
<path d="M260.7,230.9h12.4c3.4,0,5.8,1,7.2,3c0.8,1.2,1.3,2.6,1.3,4.1c0,1.8-0.5,3.3-1.5,4.5c-0.5,0.6-1.3,1.2-2.3,1.7
	c1.5,0.6,2.6,1.2,3.3,1.9c1.3,1.2,1.9,3,1.9,5.2c0,1.8-0.6,3.5-1.7,5c-1.7,2.2-4.5,3.4-8.3,3.4h-12.2V230.9z M271.7,243
	c1.7,0,2.9-0.2,3.9-0.7c1.4-0.7,2.2-2,2.2-3.9c0-1.9-0.8-3.1-2.3-3.8c-0.9-0.4-2.2-0.5-3.9-0.5h-7v8.9H271.7L271.7,243z M273,256.3
	c2.4,0,4.1-0.7,5.1-2.1c0.6-0.9,1-1.9,1-3.2c0-2.1-0.9-3.5-2.8-4.3c-1-0.4-2.3-0.6-4-0.6h-7.8v10.1L273,256.3L273,256.3z"/>
<path d="M343.1,235c1.9,2.5,2.9,5.8,2.9,9.7c0,4.3-1.1,7.8-3.3,10.7c-2.6,3.3-6.2,5-10.9,5c-4.4,0-7.9-1.5-10.4-4.4
	c-2.3-2.8-3.4-6.4-3.4-10.7c0-3.9,1-7.2,2.9-10c2.5-3.5,6.1-5.3,11-5.3C337,230.1,340.7,231.8,343.1,235z M339.7,253.3
	c1.5-2.5,2.3-5.3,2.3-8.5c0-3.4-0.9-6.1-2.6-8.2s-4.2-3.1-7.2-3.1c-3,0-5.4,1-7.3,3.1s-2.8,5-2.8,9c0,3.2,0.8,5.9,2.4,8
	c1.6,2.2,4.2,3.3,7.8,3.3C335.7,257,338.2,255.8,339.7,253.3z"/>
<path d="M391,230.9h4.4l10.4,28.7h-4.3l-3-8.6h-11.3l-3.1,8.6h-4L391,230.9z M397.4,247.8l-4.4-12.7l-4.6,12.7H397.4z"/>
<path d="M441.8,230.9h13c2.1,0,3.9,0.3,5.3,1c2.6,1.2,4,3.5,4,6.8c0,1.7-0.4,3.1-1.1,4.2c-0.7,1.1-1.7,2-3,2.6
	c1.1,0.5,2,1.1,2.5,1.8c0.6,0.7,0.9,1.9,0.9,3.6l0.1,3.8c0,1.1,0.1,1.9,0.3,2.4c0.2,0.9,0.7,1.5,1.2,1.8v0.6h-4.8
	c-0.1-0.2-0.2-0.6-0.3-1c-0.1-0.4-0.1-1.1-0.2-2.3l-0.2-4.8c-0.1-1.9-0.8-3.1-2-3.8c-0.7-0.4-1.9-0.5-3.4-0.5h-8.6v12.3h-3.9V230.9
	L441.8,230.9z M454.4,244c1.8,0,3.2-0.4,4.2-1.1c1-0.7,1.5-2,1.5-3.9c0-2-0.7-3.4-2.2-4.2c-0.8-0.4-1.8-0.6-3.1-0.6h-9.2v9.8H454.4z
	"/>
<path d="M502.4,230.9h11.5c3.9,0,6.9,1.4,9.1,4.2c1.9,2.5,2.9,5.8,2.9,9.7c0,3-0.6,5.8-1.7,8.3c-2,4.3-5.4,6.5-10.3,6.5h-11.4
	L502.4,230.9L502.4,230.9z M513.1,256.3c1.3,0,2.3-0.1,3.2-0.4c1.5-0.5,2.7-1.5,3.6-2.9c0.8-1.2,1.3-2.6,1.6-4.5
	c0.2-1.1,0.3-2.1,0.3-3c0-3.6-0.7-6.3-2.1-8.3s-3.6-2.9-6.7-2.9h-6.7v22H513.1z"/>
<path d="M565.6,250.3c0.1,1.6,0.5,2.9,1.1,4c1.2,1.9,3.4,2.9,6.6,2.9c1.4,0,2.7-0.2,3.8-0.6c2.2-0.8,3.3-2.3,3.3-4.3
	c0-1.6-0.5-2.7-1.4-3.3c-1-0.7-2.5-1.2-4.5-1.7l-3.8-0.9c-2.5-0.6-4.2-1.2-5.2-1.9c-1.8-1.2-2.7-3-2.7-5.4c0-2.6,0.9-4.7,2.6-6.3
	c1.7-1.7,4.2-2.5,7.4-2.5c2.9,0,5.4,0.7,7.5,2.2c2,1.5,3.1,3.8,3.1,7h-3.7c-0.2-1.5-0.6-2.7-1.2-3.5c-1.1-1.5-3.1-2.2-5.8-2.2
	c-2.2,0-3.8,0.5-4.7,1.4c-1,1-1.4,2.1-1.4,3.4c0,1.4,0.6,2.4,1.7,3.1c0.7,0.4,2.4,0.9,5.1,1.6l3.9,0.9c1.9,0.4,3.3,1,4.4,1.8
	c1.8,1.3,2.6,3.3,2.6,5.8c0,3.2-1.1,5.4-3.4,6.8s-4.9,2.1-7.9,2.1c-3.5,0-6.2-0.9-8.2-2.7c-2-1.8-2.9-4.3-2.9-7.4L565.6,250.3
	L565.6,250.3z"/>
<path fill="none" stroke="#000000" stroke-width="35" stroke-linecap="round" stroke-linejoin="round" stroke-miterlimit="10" d="
	M177.7,18.1c1.4,2.5,5.4,2.5,8.1,3.6c-1.3,7.4-49.9,75.6-68.4,99.9c-11.5,20.2-30.4,41.4-40.5,63c-3.6,3.1-7.4,5.6-12.6,4.5
	c-8.8-6.5-2.5-19.8-1.8-28.8c1.4-13.7,5-25.9,7.9-40.5c0-2,2.5-4.3,0.2-5.4c-7.1,9.5-10.1,16.5-14.4,24.3
	c-7.9,19.8-17.3,35.8-26.1,55.8c-0.6,3.4-12.6,4.1-12.6,0C31,163.9,48.1,123.4,70.6,91.9c5.6,0.9,14.6-2.3,17.1,2.7
	c-2.7,18.2-6.2,35.8-8.1,54.9c26.6-41.2,56-83,85.5-124.2C169.2,22.6,171.4,15.4,177.7,18.1z"/>
<path fill="none" stroke="#000000" stroke-width="35" stroke-linecap="round" stroke-linejoin="round" stroke-miterlimit="10" d="
	M270.1,72.1c-6.7,22.3-17.1,41.2-27,61.2c-12.1,17.8-20.3,45.8-26.2,50.1c0.2,2.8-12.2,0.2-16.1-1.5c0.6-5.5,37.6-68.2,54.9-110.7
	C261.7,68.6,266.7,64.4,270.1,72.1z"/>
<path fill="none" stroke="#000000" stroke-width="35" stroke-linecap="round" stroke-linejoin="round" stroke-miterlimit="10" d="
	M213.4,100.9c5.4,1.3,7.5,5.5,5.5,11.6c-4.2,4.9-6.8,6.6-12.7,5.5c-2.8-0.9-5.3-1.1-6.3-6.3C200.8,104.9,206.4,100.2,213.4,100.9z"
	/>
<path fill="none" stroke="#000000" stroke-width="35" stroke-linecap="round" stroke-linejoin="round" stroke-miterlimit="10" d="
	M330.7,103.6c-2-1.2-8.7-0.7-8.7-0.7c-21.5,0-61.7,15.8-64.3,30.3c-1.2,7.7,12.5,13.9,20.8,16.4c-18.5,10.3-27,15-36.9,25.1
	c-3.6,5.2-10.6,21.7,27,15.3c7-1.6,48.9-6.6,60.3-27.9c3.4-8.1-5.2-12.8-9.9-17.1c16.7-9,33.9-12.2,49.4-14.4
	c-13.9,9-26,19.8-35,34.2c-1.7,21.6,15.8,15.3,28,11.9c25.1-11.3,50.8-29.6,50.8-43.3c8.8,1,17.1-2.1,21.1,3.5
	c7.7,6.5-17.3,20-36.2,36.8c0,0-6.4,5.2,9.4,1.7c7,3.2,68-47.5,80.7-38.5c-7.4,10.6-16.5,17.1-23.3,28.8c0.9,2.9,1.4,6.1,4.5,8.1
	c32.1-7.4,89.3-35.8,120.6-48.6c0.7-4.1-6.3-4.3-6.3-9c-2.9,0.2-6.5-0.7-9,0.9c-29.2,10.3-56,26.3-85.5,37.8
	c2.3-6.2,18.3-17.2,7.2-27.9c-7.9-7.4-34.1,1.9-46.3,9.1c-2.6,1.5-7.5-5.7-10.4-9.1c-8.5-8.1-24.3,1.3-32.4-8.1
	c-19.3-6.3-72.8,8.2-108,23.4c-9-1.1-18.4-0.7-25.2-7.2c5.2-6.8,14.4-8.8,20.7-12.6c28.4-9.6,22.9-6.6,29.6-3.3
	C326.7,113.6,331,110.4,330.7,103.6z M313.3,157.7c1.2,8.9-30.6,17.2-62.8,22.9c1.5-9.2,31.3-23.6,46-27.5c3.8-1,5.2-1,9.2,0.2
	C305.7,153.4,314,155.9,313.3,157.7z M396.4,136c-5.6,9.7-15.1,13.9-23.4,18.9c-7.6,4.5-19.8,14.5-31.2,12.5
	c-2.3-4,18.4-24.8,29.6-31.4C380.4,138.7,389,135.9,396.4,136z M400,129.7c-2,1.9-12.7,0.8-19.7,1.7l-3-0.8
	C383,126.4,400.2,121.4,400,129.7z"/>
<path fill="none" stroke="#000000" stroke-width="35" stroke-linecap="round" stroke-linejoin="round" stroke-miterlimit="10" d="
	M163.1,127c-7.2-11-21.4-9.2-30.6-2.9c-15.9,11.7-43.6,41.2-36,68.4c3.8,4.9,22.7,5.9,46.5-5.3c14.7-12.8,36.5-20,27.3-36.8
	c-10.6,2.5-24.6,27.5-62.9,34.1c-3.5-1.8-4.2-6.6-3.4-9c9.7-0.6,11.4-2.2,18.6-5.3C136.5,162.5,167.2,138.6,163.1,127z M150,126.9
	c-5.2,11.5-15.5,17.4-23.6,26.2c-4,3.8-10.6,7.6-15.3,9.9c-2.5,0.5-2.9,0,0-3.6c3.1-3.8,18.8-28.2,35-34
	C146,125.4,150,124.6,150,126.9z"/>
<path fill="none" stroke="#000000" stroke-width="35" stroke-linecap="round" stroke-linejoin="round" stroke-miterlimit="10" d="
	M208,136.9c1.9,3-17.6,31.5-23.4,50.4c-4.9,1.6-11.2,4.7-16.2,0.9c5.6-17.8,12.5-31.3,24.3-51.3C194.2,135.1,207.2,134.6,208,136.9z
	"/>
<path fill="#FFFFFF" d="M177.7,18.1c1.4,2.5,5.4,2.5,8.1,3.6c-1.3,7.4-49.9,75.6-68.4,99.9c-11.5,20.2-30.4,41.4-40.5,63
	c-3.6,3.1-7.4,5.6-12.6,4.5c-8.8-6.5-2.5-19.8-1.8-28.8c1.4-13.7,5-25.9,7.9-40.5c0-2,2.5-4.3,0.2-5.4c-7.1,9.5-10.1,16.5-14.4,24.3
	c-7.9,19.8-17.3,35.8-26.1,55.8c-0.6,3.4-12.6,4.1-12.6,0C31,163.9,48.1,123.4,70.6,91.9c5.6,0.9,14.6-2.3,17.1,2.7
	c-2.7,18.2-6.2,35.8-8.1,54.9c26.6-41.2,56-83,85.5-124.2C169.2,22.6,171.4,15.4,177.7,18.1z"/>
<path fill="#FFFFFF" d="M270.3,72.1c-6.7,22.3-17.1,41.2-27,61.2c-12.1,17.8-20.3,45.8-26.2,50.1c0.2,2.8-12.2,0.2-16.1-1.5
	c0.6-5.5,37.6-68.2,54.9-110.7C261.9,68.6,266.9,64.4,270.3,72.1z"/>
<path fill="#FFFFFF" d="M213.6,100.9c5.4,1.3,7.5,5.5,5.5,11.6c-4.2,4.9-6.8,6.6-12.7,5.5c-2.8-0.9-5.3-1.1-6.3-6.3
	C201,104.9,206.6,100.2,213.6,100.9z"/>
<path fill="#FFFFFF" d="M330.7,103.6c-2-1.2-8.7-0.7-8.7-0.7c-21.5,0-61.7,15.8-64.3,30.3c-1.2,7.7,12.5,13.9,20.8,16.4
	c-18.5,10.3-27,15-36.9,25.1c-3.6,5.2-10.6,21.7,27,15.3c7-1.6,48.9-6.6,60.3-27.9c3.4-8.1-5.2-12.8-9.9-17.1
	c16.7-9,33.9-12.2,49.4-14.4c-13.9,9-26,19.8-35,34.2c-1.7,21.6,15.8,15.3,28,11.9c25.1-11.3,50.8-29.6,50.8-43.3
	c8.8,1,17.1-2.1,21.1,3.5c7.7,6.5-17.3,20-36.2,36.8c0,0-6.4,5.2,9.4,1.7c7,3.2,68-47.5,80.7-38.5c-7.4,10.6-16.5,17.1-23.3,28.8
	c0.9,2.9,1.4,6.1,4.5,8.1c32.1-7.4,89.3-35.8,120.6-48.6c0.7-4.1-6.3-4.3-6.3-9c-2.9,0.2-6.5-0.7-9,0.9
	c-29.2,10.3-56,26.3-85.5,37.8c2.3-6.2,18.3-17.2,7.2-27.9c-7.9-7.4-34.1,1.9-46.3,9.1c-2.6,1.5-7.5-5.7-10.4-9.1
	c-8.5-8.1-24.3,1.3-32.4-8.1c-19.3-6.3-72.8,8.2-108,23.4c-9-1.1-18.4-0.7-25.2-7.2c5.2-6.8,14.4-8.8,20.7-12.6
	c28.4-9.6,22.9-6.6,29.6-3.3C326.7,113.6,331,110.4,330.7,103.6z M313.3,157.7c1.2,8.9-30.6,17.2-62.8,22.9
	c1.5-9.2,31.3-23.6,46-27.5c3.8-1,5.2-1,9.2,0.2C305.7,153.4,314,155.9,313.3,157.7z M396.4,136c-5.6,9.7-15.1,13.9-23.4,18.9
	c-7.6,4.5-19.8,14.5-31.2,12.5c-2.3-4,18.4-24.8,29.6-31.4C380.4,138.7,389,135.9,396.4,136z M400,129.7c-2,1.9-12.7,0.8-19.7,1.7
	l-3-0.8C383,126.4,400.2,121.4,400,129.7z"/>
<path fill="#FFFFFF" d="M163.1,127c-7.2-11-21.4-9.2-30.6-2.9c-15.9,11.7-43.6,41.2-36,68.4c3.8,4.9,22.7,5.9,46.5-5.3
	c14.7-12.8,36.5-20,27.3-36.8c-10.6,2.5-24.6,27.5-62.9,34.1c-3.5-1.8-4.2-6.6-3.4-9c9.7-0.6,11.4-2.2,18.6-5.3
	C136.5,162.5,167.2,138.6,163.1,127z M150,126.9c-5.2,11.5-15.5,17.4-23.6,26.2c-4,3.8-10.6,7.6-15.3,9.9c-2.5,0.5-2.9,0,0-3.6
	c3.1-3.8,18.8-28.2,35-34C146,125.4,150,124.6,150,126.9z"/>
<path fill="#FFFFFF" d="M208.2,136.9c1.9,3-17.6,31.5-23.4,50.4c-4.9,1.6-11.2,4.7-16.2,0.9c5.6-17.8,12.5-31.3,24.3-51.3
	C194.4,135.1,207.4,134.6,208.2,136.9z"/>
</svg>
