<?xml version="1.0" encoding="utf-8"?>
<!-- Generator: Adobe Illustrator 15.0.0, SVG Export Plug-In . SVG Version: 6.00 Build 0)  -->
<!DOCTYPE svg PUBLIC "-//W3C//DTD SVG 1.1//EN" "http://www.w3.org/Graphics/SVG/1.1/DTD/svg11.dtd">
<svg version="1.1" xmlns="http://www.w3.org/2000/svg" xmlns:xlink="http://www.w3.org/1999/xlink" x="0px" y="0px"
	 width="587.149px" height="238.375px" viewBox="0 0 587.149 238.375" enable-background="new 0 0 587.149 238.375"
	 xml:space="preserve">
<g id="Surfboards_ORIG" display="none">
	<g display="inline">
		<path fill-rule="evenodd" clip-rule="evenodd" d="M48.7,226.706l3.55-0.33c0.19,1.89,0.61,3.36,1.27,4.41
			c0.66,1.06,1.61,1.9,2.84,2.55c1.23,0.64,2.62,0.96,4.16,0.96c2.22,0,3.93-0.55,5.16-1.63c1.22-1.08,1.83-2.49,1.83-4.22
			c0-1.02-0.22-1.9-0.67-2.66c-0.44-0.75-1.11-1.37-2.01-1.86c-0.9-0.48-2.84-1.16-5.83-2.04c-2.66-0.78-4.55-1.57-5.68-2.37
			c-1.12-0.79-2-1.8-2.63-3.03c-0.62-1.23-0.94-2.62-0.94-4.16c0-2.79,0.9-5.06,2.7-6.82c1.79-1.77,4.21-2.65,7.26-2.65
			c2.09,0,3.92,0.41,5.49,1.24c1.57,0.83,2.79,2.02,3.65,3.56c0.87,1.55,1.34,3.37,1.4,5.47l-3.55,0.33
			c-0.19-2.23-0.86-3.88-2.01-4.96c-1.15-1.07-2.76-1.61-4.84-1.61c-2.11,0-3.72,0.47-4.83,1.41c-1.11,0.95-1.67,2.17-1.67,3.66
			c0,1.39,0.41,2.47,1.22,3.23c0.81,0.77,2.64,1.54,5.49,2.31c2.79,0.76,4.74,1.42,5.87,1.98c1.72,0.86,3.01,2.01,3.88,3.44
			c0.87,1.43,1.3,3.14,1.3,5.12c0,1.97-0.46,3.76-1.38,5.38c-0.92,1.62-2.17,2.85-3.76,3.69c-1.58,0.84-3.49,1.27-5.73,1.27
			c-3.48,0-6.25-1.05-8.32-3.15S48.77,230.295,48.7,226.706z"/>
		<path fill-rule="evenodd" clip-rule="evenodd" d="M118.25,223.266v-19.84h3.74v19.85c0,3.33-0.32,6.06-0.97,8.19
			c-0.65,2.14-1.82,3.82-3.53,5.05c-1.71,1.24-3.88,1.86-6.52,1.86c-3.71,0-6.49-1.11-8.33-3.33c-1.85-2.22-2.78-6.14-2.78-11.77
			v-19.85h3.75v19.84c0,3.11,0.24,5.37,0.72,6.76c0.48,1.39,1.27,2.45,2.37,3.18c1.1,0.72,2.43,1.09,4.01,1.09
			c2.64,0,4.56-0.75,5.75-2.26C117.65,230.536,118.25,227.616,118.25,223.266z"/>
		<path fill-rule="evenodd" clip-rule="evenodd" d="M155.45,207.215v11.38h8c1.75,0,3.07-0.21,3.98-0.63c0.9-0.43,1.62-1.09,2.15-2
			c0.53-0.9,0.8-1.96,0.8-3.16c0-1.74-0.51-3.1-1.52-4.1c-1.02-0.99-2.52-1.49-4.52-1.49H155.45z M155.45,237.795h-3.75v-34.37
			h12.49c2.61,0,4.53,0.32,5.77,0.96c1.25,0.65,2.26,1.71,3.06,3.21c0.8,1.49,1.2,3.22,1.2,5.19c0,2.6-0.68,4.7-2.03,6.31
			c-1.35,1.61-3.32,2.64-5.89,3.08c1.05,0.62,1.85,1.25,2.4,1.89c1.1,1.31,2.07,2.77,2.92,4.38l4.9,9.35h-4.68l-3.77-7.13
			c-1.46-2.79-2.55-4.68-3.29-5.65c-0.74-0.98-1.45-1.64-2.14-1.98c-0.7-0.33-1.66-0.5-2.91-0.5h-4.28V237.795z"/>
		<polygon fill-rule="evenodd" clip-rule="evenodd" points="207.58,237.795 203.83,237.795 203.83,203.425 222.84,203.425 
			222.84,207.456 207.58,207.456 207.58,218.166 220.78,218.166 220.78,222.195 207.58,222.195 		"/>
		<path fill-rule="evenodd" clip-rule="evenodd" d="M254.95,221.905v11.86h7.01c1.54,0,2.68-0.14,3.42-0.43
			c1.06-0.4,1.87-1.07,2.42-2.01c0.55-0.93,0.83-2.1,0.83-3.51c0-1.31-0.26-2.41-0.79-3.31c-0.54-0.9-1.25-1.56-2.15-1.97
			c-0.9-0.42-2.31-0.63-4.23-0.63H254.95z M254.95,207.456v10.42h6.1c1.6,0,2.73-0.11,3.4-0.33c0.97-0.33,1.72-0.88,2.24-1.66
			c0.53-0.77,0.79-1.83,0.79-3.16c0-1.24-0.24-2.27-0.72-3.09c-0.47-0.82-1.11-1.39-1.9-1.71c-0.79-0.31-2.21-0.47-4.25-0.47H254.95
			z M261.93,237.795h-10.72v-34.37h10.59c2.15,0,3.85,0.33,5.1,1c1.25,0.66,2.28,1.69,3.08,3.1c0.8,1.4,1.2,2.95,1.2,4.66
			c0,1.57-0.35,2.99-1.04,4.26c-0.69,1.26-1.66,2.27-2.92,3.04c1.63,0.59,2.91,1.61,3.85,3.04c0.93,1.43,1.4,3.2,1.4,5.29
			c0,2.08-0.42,3.91-1.27,5.48c-0.85,1.58-1.99,2.72-3.41,3.43S264.42,237.795,261.93,237.795z"/>
		<path fill-rule="evenodd" clip-rule="evenodd" d="M303.82,221.125c0,4.23,0.93,7.52,2.8,9.85c1.87,2.34,4.14,3.51,6.82,3.51
			c2.74,0,5.04-1.18,6.89-3.54c1.85-2.36,2.78-5.83,2.78-10.4c0-2.96-0.48-5.6-1.43-7.92c-0.74-1.79-1.84-3.21-3.32-4.28
			c-1.48-1.07-3.1-1.61-4.85-1.61c-2.82,0-5.14,1.18-6.96,3.52C304.73,212.596,303.82,216.226,303.82,221.125z M299.98,221.065
			c0-5.85,1.29-10.35,3.87-13.5c2.58-3.14,5.79-4.71,9.64-4.71c2.48,0,4.75,0.7,6.8,2.1c2.05,1.41,3.67,3.45,4.87,6.13
			c1.19,2.67,1.79,5.86,1.79,9.56c0,5.09-1.16,9.23-3.47,12.43c-2.55,3.53-5.89,5.3-10.02,5.3c-4.16,0-7.5-1.81-10.04-5.44
			C301.13,229.666,299.98,225.706,299.98,221.065z"/>
		<path fill-rule="evenodd" clip-rule="evenodd" d="M363.35,213.605l-3.14,10.08h9.64l-2.95-9.52c-0.91-2.92-1.58-5.3-2-7.13
			C364.53,209.246,364.01,211.425,363.35,213.605z M356.08,237.795h-3.93l10.86-34.37h4l11.49,34.37h-4.26l-3.24-10.42h-11.88
			L356.08,237.795z"/>
		<path fill-rule="evenodd" clip-rule="evenodd" d="M408.65,207.215v11.38h8c1.75,0,3.07-0.21,3.98-0.63c0.9-0.43,1.62-1.09,2.15-2
			c0.53-0.9,0.8-1.96,0.8-3.16c0-1.74-0.51-3.1-1.53-4.1c-1.01-0.99-2.51-1.49-4.51-1.49H408.65z M408.65,237.795h-3.75v-34.37
			h12.49c2.61,0,4.53,0.32,5.77,0.96c1.25,0.65,2.26,1.71,3.06,3.21c0.8,1.49,1.2,3.22,1.2,5.19c0,2.6-0.68,4.7-2.03,6.31
			c-1.35,1.61-3.32,2.64-5.89,3.08c1.05,0.62,1.85,1.25,2.4,1.89c1.1,1.31,2.07,2.77,2.92,4.38l4.9,9.35h-4.68l-3.77-7.13
			c-1.46-2.79-2.55-4.68-3.29-5.65c-0.74-0.98-1.45-1.64-2.14-1.98c-0.7-0.33-1.66-0.5-2.9-0.5h-4.29V237.795z"/>
		<path fill-rule="evenodd" clip-rule="evenodd" d="M460.68,207.456v26.31h5.99c2.42,0,4.25-0.4,5.5-1.19
			c1.24-0.79,2.2-2.06,2.87-3.81c0.89-2.34,1.34-5.13,1.34-8.39c0-3.49-0.48-6.23-1.42-8.23c-0.94-2-2.16-3.33-3.64-4.01
			c-0.99-0.45-2.58-0.68-4.74-0.68H460.68z M467.1,237.795h-10.16v-34.37h9.72c2.4,0,4.23,0.21,5.48,0.63
			c1.64,0.55,3.06,1.55,4.26,3.01c1.2,1.45,2.14,3.28,2.81,5.49c0.67,2.21,1.01,4.84,1.01,7.87c0,3.89-0.57,7.19-1.71,9.9
			c-1.14,2.72-2.61,4.64-4.39,5.77C472.33,237.226,469.99,237.795,467.1,237.795z"/>
		<path fill-rule="evenodd" clip-rule="evenodd" d="M507.58,226.706l3.55-0.33c0.19,1.89,0.61,3.36,1.27,4.41
			c0.66,1.06,1.61,1.9,2.84,2.55c1.23,0.64,2.62,0.96,4.16,0.96c2.22,0,3.93-0.55,5.16-1.63c1.22-1.08,1.83-2.49,1.83-4.22
			c0-1.02-0.22-1.9-0.67-2.66c-0.44-0.75-1.11-1.37-2.01-1.86c-0.9-0.48-2.84-1.16-5.83-2.04c-2.66-0.78-4.55-1.57-5.68-2.37
			c-1.12-0.79-2-1.8-2.63-3.03c-0.62-1.23-0.94-2.62-0.94-4.16c0-2.79,0.9-5.06,2.7-6.82c1.79-1.77,4.21-2.65,7.26-2.65
			c2.09,0,3.92,0.41,5.49,1.24c1.57,0.83,2.79,2.02,3.65,3.56c0.87,1.55,1.34,3.37,1.4,5.47l-3.55,0.33
			c-0.19-2.23-0.86-3.88-2.01-4.96c-1.15-1.07-2.76-1.61-4.84-1.61c-2.11,0-3.72,0.47-4.83,1.41c-1.11,0.95-1.67,2.17-1.67,3.66
			c0,1.39,0.41,2.47,1.22,3.23c0.81,0.77,2.64,1.54,5.49,2.31c2.79,0.76,4.74,1.42,5.87,1.98c1.72,0.86,3.01,2.01,3.88,3.44
			c0.87,1.43,1.3,3.14,1.3,5.12c0,1.97-0.46,3.76-1.38,5.38s-2.17,2.85-3.76,3.69c-1.58,0.84-3.49,1.27-5.73,1.27
			c-3.48,0-6.25-1.05-8.32-3.15C508.73,233.125,507.65,230.295,507.58,226.706z"/>
	</g>
</g>
<g id="Surfboards_text" display="none">
	<text transform="matrix(1 0 0 1 11.2 234.8955)" display="inline" font-family="'Helvetica'" font-size="40" letter-spacing="32">SURFBOARDS</text>
</g>
<g id="Surfboards_outline">
	<g>
		<path d="M16.786,225.638c0.088,1.628,0.458,2.949,1.11,3.965c1.242,1.901,3.431,2.852,6.566,2.852
			c1.405,0,2.684-0.208,3.838-0.625c2.233-0.807,3.349-2.252,3.349-4.336c0-1.562-0.473-2.676-1.419-3.34
			c-0.959-0.651-2.46-1.217-4.503-1.699l-3.765-0.879c-2.46-0.573-4.2-1.204-5.222-1.895c-1.766-1.198-2.649-2.988-2.649-5.371
			c0-2.578,0.868-4.694,2.604-6.348c1.736-1.653,4.194-2.48,7.375-2.48c2.927,0,5.414,0.726,7.46,2.178
			c2.046,1.452,3.069,3.773,3.069,6.963h-3.652c-0.188-1.536-0.587-2.715-1.198-3.535c-1.136-1.497-3.065-2.246-5.786-2.246
			c-2.197,0-3.777,0.482-4.738,1.445c-0.961,0.964-1.442,2.083-1.442,3.359c0,1.406,0.568,2.435,1.703,3.086
			c0.744,0.417,2.429,0.938,5.053,1.562l3.898,0.918c1.88,0.443,3.331,1.048,4.353,1.816c1.766,1.341,2.649,3.288,2.649,5.84
			c0,3.177-1.127,5.449-3.381,6.816c-2.254,1.367-4.873,2.051-7.857,2.051c-3.48,0-6.203-0.911-8.171-2.734
			c-1.969-1.81-2.934-4.264-2.895-7.363H16.786z"/>
		<path d="M77.126,206.204v17.734c0,2.083,0.394,3.815,1.181,5.195c1.168,2.083,3.137,3.125,5.906,3.125
			c3.32,0,5.578-1.126,6.772-3.379c0.643-1.224,0.965-2.871,0.965-4.941v-17.734h3.926v16.113c0,3.529-0.477,6.244-1.431,8.145
			c-1.751,3.464-5.057,5.195-9.917,5.195s-8.16-1.731-9.897-5.195c-0.954-1.901-1.431-4.616-1.431-8.145v-16.113H77.126z"/>
		<path d="M134.282,206.204h13.042c2.148,0,3.919,0.319,5.312,0.957c2.646,1.224,3.97,3.483,3.97,6.777
			c0,1.719-0.355,3.125-1.064,4.219c-0.71,1.094-1.703,1.973-2.979,2.637c1.12,0.456,1.963,1.055,2.529,1.797
			s0.882,1.947,0.947,3.613l0.137,3.848c0.039,1.094,0.13,1.908,0.273,2.441c0.234,0.912,0.651,1.498,1.25,1.758v0.645h-4.766
			c-0.13-0.247-0.234-0.566-0.312-0.957s-0.144-1.146-0.195-2.266l-0.234-4.785c-0.088-1.875-0.766-3.131-2.03-3.77
			c-0.722-0.352-1.854-0.527-3.397-0.527h-8.596v12.305h-3.887V206.204z M146.906,219.349c1.772,0,3.175-0.364,4.207-1.094
			c1.032-0.729,1.548-2.044,1.548-3.945c0-2.044-0.722-3.438-2.165-4.18c-0.773-0.391-1.805-0.586-3.096-0.586h-9.231v9.805H146.906
			z"/>
		<path d="M195.071,206.204h19.902v3.516h-16.016v8.711h14.082v3.418h-14.082v13.047h-3.887V206.204z"/>
		<path d="M251.036,206.204h12.405c3.381,0,5.787,1.003,7.215,3.008c0.839,1.185,1.258,2.552,1.258,4.102
			c0,1.81-0.515,3.294-1.543,4.453c-0.534,0.612-1.302,1.172-2.305,1.68c1.471,0.56,2.571,1.191,3.301,1.895
			c1.289,1.25,1.934,2.976,1.934,5.176c0,1.849-0.583,3.522-1.749,5.02c-1.743,2.24-4.514,3.359-8.312,3.359h-12.204V206.204z
			 M261.989,218.333c1.658,0,2.947-0.228,3.868-0.684c1.447-0.716,2.171-2.005,2.171-3.867c0-1.875-0.77-3.138-2.309-3.789
			c-0.869-0.364-2.158-0.547-3.868-0.547h-7.006v8.887H261.989z M263.302,231.575c2.406,0,4.121-0.69,5.146-2.07
			c0.644-0.872,0.966-1.927,0.966-3.164c0-2.083-0.94-3.502-2.819-4.258c-1-0.403-2.32-0.605-3.963-0.605h-7.788v10.098H263.302z"/>
		<path d="M333.446,210.306c1.901,2.539,2.852,5.788,2.852,9.746c0,4.284-1.087,7.845-3.262,10.684c-2.552,3.333-6.191,5-10.918,5
			c-4.414,0-7.884-1.458-10.41-4.375c-2.253-2.812-3.379-6.367-3.379-10.664c0-3.88,0.963-7.2,2.891-9.961
			c2.474-3.542,6.133-5.312,10.977-5.312C327.261,205.423,331.011,207.051,333.446,210.306z M330.018,228.594
			c1.53-2.457,2.295-5.281,2.295-8.474c0-3.375-0.882-6.092-2.646-8.151c-1.765-2.059-4.177-3.089-7.236-3.089
			c-2.969,0-5.391,1.02-7.266,3.06c-1.875,2.039-2.812,5.046-2.812,9.021c0,3.18,0.804,5.861,2.412,8.043
			c1.608,2.183,4.215,3.274,7.822,3.274C326.011,232.278,328.488,231.05,330.018,228.594z"/>
		<path d="M381.3,206.204h4.387l10.414,28.691h-4.258l-2.995-8.594h-11.257l-3.111,8.594h-3.984L381.3,206.204z M387.744,223.138
			l-4.417-12.676l-4.59,12.676H387.744z"/>
		<path d="M432.075,206.204h13.042c2.148,0,3.919,0.319,5.312,0.957c2.646,1.224,3.97,3.483,3.97,6.777
			c0,1.719-0.355,3.125-1.064,4.219c-0.71,1.094-1.703,1.973-2.979,2.637c1.12,0.456,1.963,1.055,2.529,1.797
			s0.882,1.947,0.947,3.613l0.137,3.848c0.039,1.094,0.13,1.908,0.273,2.441c0.234,0.912,0.651,1.498,1.25,1.758v0.645h-4.766
			c-0.13-0.247-0.234-0.566-0.312-0.957s-0.144-1.146-0.195-2.266l-0.234-4.785c-0.088-1.875-0.766-3.131-2.03-3.77
			c-0.722-0.352-1.854-0.527-3.397-0.527h-8.596v12.305h-3.887V206.204z M444.699,219.349c1.772,0,3.175-0.364,4.207-1.094
			c1.032-0.729,1.548-2.044,1.548-3.945c0-2.044-0.722-3.438-2.165-4.18c-0.773-0.391-1.805-0.586-3.096-0.586h-9.231v9.805H444.699
			z"/>
		<path d="M492.669,206.204h11.468c3.894,0,6.913,1.4,9.059,4.199c1.914,2.526,2.872,5.762,2.872,9.707
			c0,3.047-0.565,5.801-1.696,8.262c-1.991,4.349-5.416,6.523-10.272,6.523h-11.43V206.204z M503.374,231.575
			c1.286,0,2.342-0.137,3.17-0.41c1.477-0.508,2.686-1.484,3.628-2.93c0.751-1.159,1.292-2.643,1.623-4.453
			c0.191-1.081,0.287-2.083,0.287-3.008c0-3.555-0.691-6.315-2.072-8.281c-1.381-1.966-3.606-2.949-6.674-2.949h-6.742v22.031
			H503.374z"/>
		<path d="M555.919,225.638c0.088,1.628,0.458,2.949,1.11,3.965c1.242,1.901,3.431,2.852,6.566,2.852
			c1.405,0,2.684-0.208,3.838-0.625c2.233-0.807,3.349-2.252,3.349-4.336c0-1.562-0.473-2.676-1.419-3.34
			c-0.959-0.651-2.46-1.217-4.503-1.699l-3.765-0.879c-2.46-0.573-4.2-1.204-5.222-1.895c-1.766-1.198-2.649-2.988-2.649-5.371
			c0-2.578,0.868-4.694,2.604-6.348c1.736-1.653,4.194-2.48,7.375-2.48c2.927,0,5.413,0.726,7.46,2.178
			c2.046,1.452,3.069,3.773,3.069,6.963h-3.652c-0.188-1.536-0.587-2.715-1.198-3.535c-1.136-1.497-3.065-2.246-5.786-2.246
			c-2.197,0-3.777,0.482-4.738,1.445c-0.961,0.964-1.441,2.083-1.441,3.359c0,1.406,0.567,2.435,1.703,3.086
			c0.744,0.417,2.429,0.938,5.053,1.562l3.898,0.918c1.88,0.443,3.331,1.048,4.353,1.816c1.766,1.341,2.649,3.288,2.649,5.84
			c0,3.177-1.127,5.449-3.381,6.816c-2.254,1.367-4.873,2.051-7.857,2.051c-3.479,0-6.203-0.911-8.171-2.734
			c-1.969-1.81-2.934-4.264-2.895-7.363H555.919z"/>
	</g>
</g>
<g id="Neilson">
	
		<path fill-rule="evenodd" clip-rule="evenodd" fill="none" stroke="#000000" stroke-width="15.6" stroke-linecap="round" stroke-linejoin="round" stroke-miterlimit="10" d="
		M168,8.396c1.4,2.5,5.4,2.5,8.1,3.6c-1.3,7.4-49.9,75.6-68.4,99.9c-11.5,20.2-30.4,41.4-40.5,63c-3.6,3.1-7.4,5.6-12.6,4.5
		c-8.8-6.5-2.5-19.8-1.8-28.8c1.4-13.7,5-25.9,7.9-40.5c0-2,2.5-4.3,0.2-5.4c-7.1,9.5-10.1,16.5-14.4,24.3
		c-7.9,19.8-17.3,35.8-26.1,55.8c-0.6,3.4-12.6,4.15-12.6,0c13.5-30.6,30.6-71.1,53.1-102.6c5.6,0.9,14.6-2.3,17.1,2.7
		c-2.7,18.2-6.2,35.8-8.1,54.9c26.6-41.2,56-83,85.5-124.2C159.5,12.896,161.7,5.695,168,8.396z"/>
	
		<path fill-rule="evenodd" clip-rule="evenodd" fill="none" stroke="#000000" stroke-width="15.6" stroke-linecap="round" stroke-linejoin="round" stroke-miterlimit="10" d="
		M260.4,62.396c-6.7,22.3-17.1,41.2-27,61.2c-12.1,17.8-20.3,45.8-26.2,50.1c0.25,2.75-12.25,0.25-16.1-1.5
		c0.6-5.5,37.6-68.25,54.9-110.7C251.95,58.945,257,54.695,260.4,62.396z"/>
	
		<path fill-rule="evenodd" clip-rule="evenodd" fill="none" stroke="#000000" stroke-width="15.6" stroke-linecap="round" stroke-linejoin="round" stroke-miterlimit="10" d="
		M203.7,91.195c5.4,1.3,7.5,5.5,5.5,11.6c-4.25,4.9-6.8,6.6-12.7,5.5c-2.8-0.85-5.3-1.1-6.3-6.3
		C191.1,95.195,196.7,90.496,203.7,91.195z"/>
	
		<path fill-rule="evenodd" clip-rule="evenodd" fill="none" stroke="#000000" stroke-width="15.6" stroke-linecap="round" stroke-linejoin="round" stroke-miterlimit="10" d="
		M321,93.896c-1.95-1.2-8.7-0.7-8.7-0.7c-21.5,0-61.75,15.75-64.3,30.3c-1.2,7.7,12.5,13.9,20.8,16.4c-18.5,10.3-27,15-36.9,25.1
		c-3.6,5.2-10.6,21.7,27,15.3c7-1.6,48.9-6.6,60.3-27.9c3.4-8.1-5.2-12.8-9.9-17.1c16.7-9,33.9-12.2,49.4-14.4
		c-13.9,9.05-26,19.8-35,34.2c-1.65,21.6,15.85,15.35,28,11.9c25.1-11.3,50.85-29.55,50.8-43.3c8.8,1,17.1-2.1,21.1,3.5
		c7.7,6.5-17.3,20-36.2,36.8c0,0-6.35,5.2,9.4,1.7c7,3.25,68-47.5,80.7-38.5c-7.4,10.6-16.5,17.1-23.3,28.8c0.9,2.9,1.4,6.1,4.5,8.1
		c32.1-7.4,89.3-35.8,120.6-48.6c0.7-4.1-6.3-4.3-6.3-9c-2.9,0.2-6.5-0.7-9,0.9c-29.2,10.3-56,26.3-85.5,37.8
		c2.3-6.25,18.3-17.25,7.2-27.9c-7.9-7.35-34.1,1.9-46.3,9.1c-2.6,1.55-7.5-5.7-10.4-9.1c-8.5-8.1-24.3,1.3-32.4-8.1
		c-19.3-6.3-72.8,8.25-108,23.4c-9-1.1-18.4-0.7-25.2-7.2c5.2-6.8,14.4-8.8,20.7-12.6c28.45-9.6,22.95-6.6,29.6-3.3
		C317.05,103.945,321.3,100.695,321,93.896z M303.6,147.996c1.2,8.95-30.55,17.2-62.8,22.95c1.5-9.2,31.26-23.57,46-27.5
		c3.75-1,5.25-1,9.25,0.25C296.05,143.695,304.3,146.195,303.6,147.996z M386.7,126.295c-5.6,9.7-15.1,13.9-23.4,18.9
		c-7.6,4.5-19.75,14.5-31.2,12.5c-2.3-4,18.45-24.75,29.6-31.4C370.7,128.996,379.3,126.195,386.7,126.295z M390.3,119.996
		c-2,1.95-12.7,0.8-19.7,1.7l-3-0.8C373.3,116.695,390.55,111.695,390.3,119.996z"/>
	
		<path fill-rule="evenodd" clip-rule="evenodd" fill="none" stroke="#000000" stroke-width="15.6" stroke-linecap="round" stroke-linejoin="round" stroke-miterlimit="10" d="
		M153.42,117.295c-7.2-11-21.4-9.22-30.6-2.9c-15.92,11.68-43.6,41.2-36,68.4c3.82,4.9,22.7,5.9,46.5-5.3
		c14.7-12.8,36.45-20.05,27.3-36.8c-10.6,2.5-24.6,27.5-62.9,34.1c-3.45-1.85-4.2-6.6-3.4-9c9.7-0.6,11.4-2.2,18.6-5.3
		C126.77,152.826,157.52,128.945,153.42,117.295z M140.27,117.195c-5.2,11.5-15.55,17.4-23.65,26.2c-4,3.8-10.6,7.6-15.3,9.9
		c-2.55,0.53-2.93,0.03,0-3.6c3.07-3.75,18.75-28.2,34.95-34C136.27,115.695,140.27,114.945,140.27,117.195z"/>
	
		<path fill-rule="evenodd" clip-rule="evenodd" fill="none" stroke="#000000" stroke-width="15.6" stroke-linecap="round" stroke-linejoin="round" stroke-miterlimit="10" d="
		M198.3,127.195c1.9,3-17.6,31.5-23.4,50.4c-4.9,1.6-11.2,4.7-16.2,0.9c5.6-17.8,12.5-31.3,24.3-51.3
		C184.45,125.445,197.45,124.945,198.3,127.195z"/>
</g>
<g id="white">
	<path fill-rule="evenodd" clip-rule="evenodd" fill="#FFFFFF" d="M168,8.396c1.4,2.5,5.4,2.5,8.1,3.6c-1.3,7.4-49.9,75.6-68.4,99.9
		c-11.5,20.2-30.4,41.4-40.5,63c-3.6,3.1-7.4,5.6-12.6,4.5c-8.8-6.5-2.5-19.8-1.8-28.8c1.4-13.7,5-25.9,7.9-40.5
		c0-2,2.5-4.3,0.2-5.4c-7.1,9.5-10.1,16.5-14.4,24.3c-7.9,19.8-17.3,35.8-26.1,55.8c-0.6,3.4-12.6,4.15-12.6,0
		c13.5-30.6,30.6-71.1,53.1-102.6c5.6,0.9,14.6-2.3,17.1,2.7c-2.7,18.2-6.2,35.8-8.1,54.9c26.6-41.2,56-83,85.5-124.2
		C159.5,12.896,161.7,5.695,168,8.396z"/>
	<path fill-rule="evenodd" clip-rule="evenodd" fill="#FFFFFF" d="M260.64,62.396c-6.7,22.3-17.1,41.2-27,61.2
		c-12.1,17.8-20.3,45.8-26.2,50.1c0.25,2.75-12.25,0.25-16.1-1.5c0.6-5.5,37.6-68.25,54.9-110.7
		C252.19,58.945,257.24,54.695,260.64,62.396z"/>
	<path fill-rule="evenodd" clip-rule="evenodd" fill="#FFFFFF" d="M203.94,91.195c5.4,1.3,7.5,5.5,5.5,11.6
		c-4.25,4.9-6.8,6.6-12.7,5.5c-2.8-0.85-5.3-1.1-6.3-6.3C191.34,95.195,196.94,90.496,203.94,91.195z"/>
	<path fill-rule="evenodd" clip-rule="evenodd" fill="#FFFFFF" d="M321,93.896c-1.95-1.2-8.7-0.7-8.7-0.7
		c-21.5,0-61.75,15.75-64.3,30.3c-1.2,7.7,12.5,13.9,20.8,16.4c-18.5,10.3-27,15-36.9,25.1c-3.6,5.2-10.6,21.7,27,15.3
		c7-1.6,48.9-6.6,60.3-27.9c3.4-8.1-5.2-12.8-9.9-17.1c16.7-9,33.9-12.2,49.4-14.4c-13.9,9.05-26,19.8-35,34.2
		c-1.65,21.6,15.85,15.35,28,11.9c25.1-11.3,50.85-29.55,50.8-43.3c8.8,1,17.1-2.1,21.1,3.5c7.7,6.5-17.3,20-36.2,36.8
		c0,0-6.35,5.2,9.4,1.7c7,3.25,68-47.5,80.7-38.5c-7.4,10.6-16.5,17.1-23.3,28.8c0.9,2.9,1.4,6.1,4.5,8.1
		c32.1-7.4,89.3-35.8,120.6-48.6c0.7-4.1-6.3-4.3-6.3-9c-2.9,0.2-6.5-0.7-9,0.9c-29.2,10.3-56,26.3-85.5,37.8
		c2.3-6.25,18.3-17.25,7.2-27.9c-7.9-7.35-34.1,1.9-46.3,9.1c-2.6,1.55-7.5-5.7-10.4-9.1c-8.5-8.1-24.3,1.3-32.4-8.1
		c-19.3-6.3-72.8,8.25-108,23.4c-9-1.1-18.4-0.7-25.2-7.2c5.2-6.8,14.4-8.8,20.7-12.6c28.45-9.6,22.95-6.6,29.6-3.3
		C317.05,103.945,321.3,100.695,321,93.896z M303.6,147.996c1.2,8.95-30.55,17.2-62.8,22.95c1.5-9.2,31.26-23.57,46-27.5
		c3.75-1,5.25-1,9.25,0.25C296.05,143.695,304.3,146.195,303.6,147.996z M386.7,126.295c-5.6,9.7-15.1,13.9-23.4,18.9
		c-7.6,4.5-19.75,14.5-31.2,12.5c-2.3-4,18.45-24.75,29.6-31.4C370.7,128.996,379.3,126.195,386.7,126.295z M390.3,119.996
		c-2,1.95-12.7,0.8-19.7,1.7l-3-0.8C373.3,116.695,390.55,111.695,390.3,119.996z"/>
	<path fill-rule="evenodd" clip-rule="evenodd" fill="#FFFFFF" d="M153.42,117.295c-7.2-11-21.4-9.22-30.6-2.9
		c-15.92,11.68-43.6,41.2-36,68.4c3.82,4.9,22.7,5.9,46.5-5.3c14.7-12.8,36.45-20.05,27.3-36.8c-10.6,2.5-24.6,27.5-62.9,34.1
		c-3.45-1.85-4.2-6.6-3.4-9c9.7-0.6,11.4-2.2,18.6-5.3C126.77,152.826,157.52,128.945,153.42,117.295z M140.27,117.195
		c-5.2,11.5-15.55,17.4-23.65,26.2c-4,3.8-10.6,7.6-15.3,9.9c-2.55,0.53-2.93,0.03,0-3.6c3.07-3.75,18.75-28.2,34.95-34
		C136.27,115.695,140.27,114.945,140.27,117.195z"/>
	<path fill-rule="evenodd" clip-rule="evenodd" fill="#FFFFFF" d="M198.54,127.195c1.9,3-17.6,31.5-23.4,50.4
		c-4.9,1.6-11.2,4.7-16.2,0.9c5.6-17.8,12.5-31.3,24.3-51.3C184.69,125.445,197.69,124.945,198.54,127.195z"/>
</g>
</svg>
